<svg width="374" height="70" viewBox="0 0 374 70" fill="none" xmlns="http://www.w3.org/2000/svg">
<path d="M53.9688 15.8125H23.0312C21.5399 15.8141 20.1101 16.4073 19.0556 17.4618C18.001 18.5164 17.4079 19.9462 17.4062 21.4375V49.5625C17.4079 51.0538 18.001 52.4836 19.0556 53.5382C20.1101 54.5927 21.5399 55.1859 23.0312 55.1875H53.9688C55.4601 55.1859 56.8899 54.5927 57.9444 53.5382C58.999 52.4836 59.5921 51.0538 59.5938 49.5625V21.4375C59.5921 19.9462 58.999 18.5164 57.9444 17.4618C56.8899 16.4073 55.4601 15.8141 53.9688 15.8125ZM24.4375 35.5C24.1462 35.5 23.862 35.4095 23.6243 35.241C23.3866 35.0725 23.2071 34.8344 23.1106 34.5595C23.0141 34.2846 23.0054 33.9865 23.0856 33.7064C23.1659 33.4263 23.3312 33.1781 23.5586 32.996L29.2179 28.4688L23.5586 23.9415C23.4143 23.8261 23.2942 23.6834 23.2051 23.5215C23.1159 23.3597 23.0596 23.1819 23.0392 22.9982C23.0188 22.8146 23.0347 22.6288 23.0862 22.4513C23.1376 22.2738 23.2234 22.1082 23.3389 21.964C23.4543 21.8197 23.597 21.6996 23.7588 21.6104C23.9207 21.5213 24.0985 21.4649 24.2821 21.4445C24.4658 21.4241 24.6516 21.4401 24.8291 21.4915C25.0065 21.5429 25.1721 21.6288 25.3164 21.7442L32.3477 27.3692C32.5125 27.501 32.6456 27.6681 32.7371 27.8583C32.8286 28.0485 32.8761 28.2568 32.8761 28.4679C32.8761 28.6789 32.8286 28.8872 32.7371 29.0774C32.6456 29.2676 32.5125 29.4348 32.3477 29.5665L25.3164 35.1915C25.067 35.3912 24.757 35.5 24.4375 35.5ZM38.5 35.5H32.875C32.502 35.5 32.1444 35.3518 31.8806 35.0881C31.6169 34.8244 31.4688 34.4667 31.4688 34.0938C31.4688 33.7208 31.6169 33.3631 31.8806 33.0994C32.1444 32.8357 32.502 32.6875 32.875 32.6875H38.5C38.873 32.6875 39.2306 32.8357 39.4944 33.0994C39.7581 33.3631 39.9062 33.7208 39.9062 34.0938C39.9062 34.4667 39.7581 34.8244 39.4944 35.0881C39.2306 35.3518 38.873 35.5 38.5 35.5Z" fill="black"/>
<path d="M89.4 20.8C92.36 20.8 94.9467 21.4 97.16 22.6C99.4 23.7733 101.12 25.4267 102.32 27.56C103.52 29.6933 104.12 32.1333 104.12 34.88C104.12 37.6 103.507 40.0267 102.28 42.16C101.08 44.2933 99.36 45.9733 97.12 47.2C94.9067 48.4 92.3333 49 89.4 49H78.24V20.8H89.4ZM88.8 42.08C91.0933 42.08 92.8933 41.4533 94.2 40.2C95.5067 38.9467 96.16 37.1733 96.16 34.88C96.16 32.56 95.5067 30.7733 94.2 29.52C92.8933 28.24 91.0933 27.6 88.8 27.6H86.08V42.08H88.8ZM115.494 27.08V31.68H124.494V37.64H115.494V42.72H125.694V49H107.654V20.8H125.694V27.08H115.494ZM157.008 20.8L147.288 49H137.248L127.488 20.8H135.888L142.288 41.16L148.648 20.8H157.008ZM181.731 30.2C181.731 31.9067 181.331 33.4667 180.531 34.88C179.758 36.2667 178.571 37.3867 176.971 38.24C175.398 39.0667 173.464 39.48 171.171 39.48H167.291V49H159.451V20.8H171.171C173.438 20.8 175.358 21.2 176.931 22C178.531 22.8 179.731 23.9067 180.531 25.32C181.331 26.7333 181.731 28.36 181.731 30.2ZM170.411 33.24C172.624 33.24 173.731 32.2267 173.731 30.2C173.731 28.1467 172.624 27.12 170.411 27.12H167.291V33.24H170.411ZM202.721 44.4H192.721L191.201 49H182.961L193.241 20.8H202.281L212.521 49H204.241L202.721 44.4ZM200.761 38.4L197.721 29.28L194.721 38.4H200.761ZM229.356 49L223.756 38.6H222.916V49H215.076V20.8H227.436C229.703 20.8 231.623 21.2 233.196 22C234.769 22.7733 235.956 23.8533 236.756 25.24C237.556 26.6 237.956 28.1333 237.956 29.84C237.956 31.76 237.423 33.4533 236.356 34.92C235.316 36.36 233.783 37.3867 231.756 38L238.116 49H229.356ZM222.916 33.24H226.796C227.863 33.24 228.663 32.9867 229.196 32.48C229.729 31.9733 229.996 31.24 229.996 30.28C229.996 29.3733 229.716 28.6667 229.156 28.16C228.623 27.6267 227.836 27.36 226.796 27.36H222.916V33.24ZM259.361 44.4H249.361L247.841 49H239.601L249.881 20.8H258.921L269.161 49H260.881L259.361 44.4ZM257.401 38.4L254.361 29.28L251.361 38.4H257.401ZM282.877 20.8C285.837 20.8 288.423 21.4 290.637 22.6C292.877 23.7733 294.597 25.4267 295.797 27.56C296.997 29.6933 297.597 32.1333 297.597 34.88C297.597 37.6 296.983 40.0267 295.757 42.16C294.557 44.2933 292.837 45.9733 290.597 47.2C288.383 48.4 285.81 49 282.877 49H271.717V20.8H282.877ZM282.277 42.08C284.57 42.08 286.37 41.4533 287.677 40.2C288.983 38.9467 289.637 37.1733 289.637 34.88C289.637 32.56 288.983 30.7733 287.677 29.52C286.37 28.24 284.57 27.6 282.277 27.6H279.557V42.08H282.277ZM308.971 20.8V49H301.131V20.8H308.971ZM324.075 49.28C320.795 49.28 318.102 48.5067 315.995 46.96C313.889 45.3867 312.755 43.1467 312.595 40.24H320.955C321.035 41.2267 321.329 41.9467 321.835 42.4C322.342 42.8533 322.995 43.08 323.795 43.08C324.515 43.08 325.102 42.9067 325.555 42.56C326.035 42.1867 326.275 41.68 326.275 41.04C326.275 40.2133 325.889 39.5733 325.115 39.12C324.342 38.6667 323.089 38.16 321.355 37.6C319.515 36.9867 318.022 36.4 316.875 35.84C315.755 35.2533 314.769 34.4133 313.915 33.32C313.089 32.2 312.675 30.7467 312.675 28.96C312.675 27.1467 313.129 25.6 314.035 24.32C314.942 23.0133 316.195 22.0267 317.795 21.36C319.395 20.6933 321.209 20.36 323.235 20.36C326.515 20.36 329.129 21.1333 331.075 22.68C333.049 24.2 334.102 26.3467 334.235 29.12H325.715C325.689 28.2667 325.422 27.6267 324.915 27.2C324.435 26.7733 323.809 26.56 323.035 26.56C322.449 26.56 321.969 26.7333 321.595 27.08C321.222 27.4267 321.035 27.92 321.035 28.56C321.035 29.0933 321.235 29.56 321.635 29.96C322.062 30.3333 322.582 30.6667 323.195 30.96C323.809 31.2267 324.715 31.5733 325.915 32C327.702 32.6133 329.169 33.2267 330.315 33.84C331.489 34.4267 332.489 35.2667 333.315 36.36C334.169 37.4267 334.595 38.7867 334.595 40.44C334.595 42.12 334.169 43.6267 333.315 44.96C332.489 46.2933 331.275 47.3467 329.675 48.12C328.102 48.8933 326.235 49.28 324.075 49.28ZM346.08 27.08V31.68H355.08V37.64H346.08V42.72H356.28V49H338.24V20.8H356.28V27.08H346.08Z" fill="black"/>
</svg>
